<svg width="140" height="36" viewBox="0 0 140 36" fill="none" xmlns="http://www.w3.org/2000/svg">
<g opacity="0.4">
<path d="M14.1212 20.4146H5.20632L5.15877 14.8049H12.3858C13.6854 14.8049 14.7235 14.6585 15.5001 14.3659C16.2767 14.0569 16.8393 13.6098 17.188 13.0244C17.5525 12.439 17.7348 11.7073 17.7348 10.8293C17.7348 9.82114 17.5525 9.00813 17.188 8.39024C16.8235 7.77236 16.245 7.3252 15.4525 7.04878C14.6759 6.7561 13.6696 6.60976 12.4333 6.60976H8.34437V35.5122H0V0H12.4333C14.5729 0 16.4827 0.203252 18.1627 0.609756C19.8426 1 21.269 1.60163 22.4418 2.41463C23.6305 3.22764 24.5339 4.25203 25.152 5.4878C25.7701 6.70732 26.0791 8.14634 26.0791 9.80488C26.0791 11.252 25.778 12.6098 25.1758 13.878C24.5735 15.1463 23.5671 16.1789 22.1566 16.9756C20.7619 17.7561 18.8521 18.1626 16.4272 18.1951L14.1212 20.4146ZM13.7884 35.5122H3.1856L6.03838 28.9268H13.7884C14.9295 28.9268 15.8408 28.748 16.5223 28.3902C17.2197 28.0163 17.7189 27.5285 18.02 26.9268C18.337 26.3089 18.4955 25.626 18.4955 24.878C18.4955 23.9675 18.3449 23.1789 18.0438 22.5122C17.7585 21.8455 17.2989 21.3333 16.665 20.9756C16.031 20.6016 15.1831 20.4146 14.1212 20.4146H7.10817L7.15571 14.8049H15.5476L17.497 17.0488C19.8109 16.9512 21.6415 17.2846 22.9886 18.0488C24.3516 18.813 25.3263 19.8211 25.9127 21.0732C26.4991 22.3252 26.7923 23.6341 26.7923 25C26.7923 27.3252 26.301 29.2683 25.3184 30.8293C24.3516 32.3902 22.9015 33.561 20.9679 34.3415C19.0344 35.1219 16.6412 35.5122 13.7884 35.5122Z" fill="url(#paint0_linear_1_1036)"/>
<path d="M44.5984 9.12195V14.8293H29.0983V9.12195H44.5984ZM32.3552 2.56098H40.3668V26.9024C40.3668 27.6016 40.446 28.1463 40.6045 28.5366C40.763 28.9106 41.0324 29.1789 41.4128 29.3415C41.809 29.4878 42.332 29.561 42.9818 29.561C43.4414 29.561 43.8218 29.5528 44.1229 29.5366C44.4241 29.5041 44.7093 29.4634 44.9788 29.4146V35.2927C44.2973 35.5203 43.5841 35.6911 42.8392 35.8049C42.0943 35.935 41.3019 36 40.4619 36C38.7502 36 37.2842 35.7236 36.0638 35.1707C34.8593 34.6179 33.9401 33.748 33.3062 32.561C32.6722 31.374 32.3552 29.8293 32.3552 27.9268V2.56098Z" fill="url(#paint1_linear_1_1036)"/>
<path d="M55.8669 15.6585V35.5122H47.8553V9.12195H55.3439L55.8669 15.6585ZM63.4743 8.92683L63.3316 16.561C63.0147 16.5285 62.5867 16.4878 62.0479 16.439C61.509 16.3902 61.0573 16.3659 60.6928 16.3659C59.7577 16.3659 58.9495 16.4797 58.268 16.7073C57.6023 16.9187 57.0476 17.2439 56.6038 17.6829C56.1759 18.1057 55.8589 18.6423 55.6529 19.2927C55.4627 19.9431 55.3756 20.6992 55.3914 21.561L53.9412 20.5854C53.9412 18.813 54.1077 17.2033 54.4405 15.7561C54.7892 14.2927 55.2805 13.0325 55.9144 11.9756C56.5484 10.9024 57.317 10.0813 58.2204 9.51219C59.1238 8.92683 60.1381 8.63415 61.2634 8.63415C61.6596 8.63415 62.0479 8.65854 62.4283 8.70732C62.8245 8.7561 63.1731 8.82927 63.4743 8.92683Z" fill="url(#paint2_linear_1_1036)"/>
<path d="M78.8793 28.878V18C78.8793 17.252 78.7762 16.6098 78.5702 16.0732C78.3642 15.5366 78.0393 15.122 77.5955 14.8293C77.1517 14.5203 76.5574 14.3659 75.8125 14.3659C75.2103 14.3659 74.6952 14.4715 74.2673 14.6829C73.8394 14.8943 73.5145 15.2114 73.2926 15.6341C73.0707 16.0569 72.9598 16.5935 72.9598 17.2439H64.9482C64.9482 16.0244 65.2097 14.8943 65.7327 13.8537C66.2716 12.7967 67.0323 11.878 68.0149 11.0976C69.0134 10.3171 70.2021 9.71545 71.5809 9.29268C72.9756 8.85366 74.5288 8.63415 76.2404 8.63415C78.2849 8.63415 80.1075 8.98374 81.7083 9.68293C83.3248 10.3821 84.6007 11.4309 85.5357 12.8293C86.4708 14.2114 86.9384 15.9512 86.9384 18.0488V28.8537C86.9384 30.5772 87.0334 31.8862 87.2236 32.7805C87.4138 33.6585 87.6833 34.4309 88.0319 35.0976V35.5122H79.9966C79.6162 34.6992 79.3309 33.7073 79.1408 32.5366C78.9664 31.3496 78.8793 30.1301 78.8793 28.878ZM79.854 19.3902L79.9015 23.7805H76.3593C75.6144 23.7805 74.9805 23.8862 74.4575 24.0976C73.9503 24.3089 73.5382 24.6016 73.2213 24.9756C72.9201 25.3333 72.6982 25.7398 72.5556 26.1951C72.4288 26.6504 72.3654 27.1301 72.3654 27.6341C72.3654 28.122 72.4764 28.561 72.6982 28.9512C72.936 29.3252 73.253 29.6179 73.6492 29.8293C74.0454 30.0406 74.4892 30.1463 74.9805 30.1463C75.868 30.1463 76.6208 29.9756 77.2389 29.6341C77.8729 29.2764 78.3563 28.8455 78.6891 28.3415C79.0219 27.8374 79.1883 27.3659 79.1883 26.9268L80.9475 30.2927C80.6305 30.9431 80.266 31.6016 79.854 32.2683C79.4577 32.935 78.9585 33.5528 78.3563 34.122C77.7699 34.6748 77.0487 35.1301 76.1929 35.4878C75.3371 35.8293 74.299 36 73.0786 36C71.4937 36 70.0357 35.6667 68.7044 35C67.3889 34.3333 66.335 33.4065 65.5425 32.2195C64.7501 31.0163 64.3539 29.6341 64.3539 28.0732C64.3539 26.7073 64.5916 25.4878 65.0671 24.4146C65.5584 23.3415 66.2953 22.4309 67.278 21.6829C68.2606 20.935 69.5126 20.3659 71.0341 19.9756C72.5556 19.5854 74.3465 19.3902 76.4069 19.3902H79.854Z" fill="url(#paint3_linear_1_1036)"/>
<path d="M102.248 29.6585C102.993 29.6585 103.627 29.5203 104.15 29.2439C104.689 28.9512 105.093 28.5447 105.363 28.0244C105.648 27.4878 105.783 26.8455 105.767 26.0976H113.303C113.319 28.0813 112.843 29.8211 111.876 31.3171C110.925 32.7967 109.626 33.9512 107.978 34.7805C106.345 35.5935 104.499 36 102.438 36C100.426 36 98.6664 35.6667 97.1608 35C95.6552 34.3171 94.3952 33.374 93.3809 32.1707C92.3824 30.9512 91.6296 29.5285 91.1224 27.9024C90.6311 26.2764 90.3855 24.5122 90.3855 22.6098V22.0488C90.3855 20.1463 90.6311 18.3821 91.1224 16.7561C91.6296 15.1138 92.3824 13.6911 93.3809 12.4878C94.3952 11.2683 95.6472 10.3252 97.137 9.65854C98.6427 8.97561 100.394 8.63415 102.391 8.63415C104.53 8.63415 106.416 9.04878 108.049 9.87805C109.697 10.7073 110.989 11.9106 111.924 13.4878C112.859 15.065 113.319 16.9756 113.303 19.2195H105.767C105.783 18.4228 105.664 17.7073 105.41 17.0732C105.157 16.439 104.76 15.935 104.221 15.561C103.698 15.1707 103.025 14.9756 102.201 14.9756C101.377 14.9756 100.711 15.1626 100.204 15.5366C99.6966 15.9106 99.3083 16.4309 99.0389 17.0976C98.7853 17.748 98.611 18.4959 98.5159 19.3415C98.4366 20.187 98.397 21.0894 98.397 22.0488V22.6098C98.397 23.5854 98.4366 24.5041 98.5159 25.3659C98.611 26.2114 98.7932 26.9593 99.0627 27.6098C99.3321 28.2439 99.7204 28.748 100.228 29.122C100.735 29.4797 101.408 29.6585 102.248 29.6585Z" fill="url(#paint4_linear_1_1036)"/>
<path d="M129.183 36C127.091 36 125.221 35.6667 123.573 35C121.924 34.3171 120.53 33.3821 119.389 32.1951C118.263 31.0081 117.4 29.6423 116.797 28.0976C116.211 26.5528 115.918 24.9187 115.918 23.1951V22.2683C115.918 20.3333 116.179 18.5447 116.702 16.9024C117.225 15.2439 118.002 13.7967 119.032 12.561C120.062 11.3252 121.354 10.3659 122.907 9.68293C124.46 8.98374 126.267 8.63415 128.327 8.63415C130.15 8.63415 131.782 8.93496 133.225 9.53658C134.667 10.1382 135.887 11 136.886 12.122C137.9 13.2439 138.669 14.6016 139.192 16.1951C139.731 17.7886 140 19.5772 140 21.561V24.9024H118.985V19.7561H132.179V19.122C132.194 18.2439 132.044 17.4959 131.727 16.878C131.426 16.2602 130.982 15.7886 130.396 15.4634C129.809 15.1382 129.096 14.9756 128.256 14.9756C127.384 14.9756 126.663 15.1707 126.093 15.561C125.538 15.9512 125.102 16.4878 124.785 17.1707C124.484 17.8374 124.27 18.6098 124.143 19.4878C124.017 20.3659 123.953 21.2927 123.953 22.2683V23.1951C123.953 24.1707 124.08 25.0569 124.333 25.8537C124.603 26.6504 124.983 27.3333 125.475 27.9024C125.982 28.4553 126.584 28.8862 127.281 29.1951C127.995 29.5041 128.803 29.6585 129.706 29.6585C130.8 29.6585 131.878 29.4472 132.939 29.0244C134.001 28.6016 134.913 27.9024 135.673 26.9268L139.311 31.3659C138.788 32.1301 138.043 32.8699 137.076 33.5854C136.125 34.3008 134.984 34.8862 133.653 35.3415C132.321 35.7805 130.831 36 129.183 36Z" fill="url(#paint5_linear_1_1036)"/>
</g>
<defs>
<linearGradient id="paint0_linear_1_1036" x1="70" y1="9.18" x2="70" y2="40.14" gradientUnits="userSpaceOnUse">
<stop stop-color="#F0F4F7"/>
<stop offset="1" stop-color="#F0F4F7" stop-opacity="0"/>
</linearGradient>
<linearGradient id="paint1_linear_1_1036" x1="70" y1="9.18" x2="70" y2="40.14" gradientUnits="userSpaceOnUse">
<stop stop-color="#F0F4F7"/>
<stop offset="1" stop-color="#F0F4F7" stop-opacity="0"/>
</linearGradient>
<linearGradient id="paint2_linear_1_1036" x1="70" y1="9.18" x2="70" y2="40.14" gradientUnits="userSpaceOnUse">
<stop stop-color="#F0F4F7"/>
<stop offset="1" stop-color="#F0F4F7" stop-opacity="0"/>
</linearGradient>
<linearGradient id="paint3_linear_1_1036" x1="70" y1="9.18" x2="70" y2="40.14" gradientUnits="userSpaceOnUse">
<stop stop-color="#F0F4F7"/>
<stop offset="1" stop-color="#F0F4F7" stop-opacity="0"/>
</linearGradient>
<linearGradient id="paint4_linear_1_1036" x1="70" y1="9.18" x2="70" y2="40.14" gradientUnits="userSpaceOnUse">
<stop stop-color="#F0F4F7"/>
<stop offset="1" stop-color="#F0F4F7" stop-opacity="0"/>
</linearGradient>
<linearGradient id="paint5_linear_1_1036" x1="70" y1="9.18" x2="70" y2="40.14" gradientUnits="userSpaceOnUse">
<stop stop-color="#F0F4F7"/>
<stop offset="1" stop-color="#F0F4F7" stop-opacity="0"/>
</linearGradient>
</defs>
</svg>
