<svg width="19" height="20" viewBox="0 0 19 20" fill="none" xmlns="http://www.w3.org/2000/svg">
<path fill-rule="evenodd" clip-rule="evenodd" d="M1.99996 10.3L1.99997 10.0761V9.99997L1.99998 9.99995C2.00033 8.53003 2.00533 7.4531 2.07531 6.59665C2.1491 5.69349 2.29064 5.11508 2.52857 4.6481C2.99356 3.73551 3.73552 2.99356 4.6481 2.52857C5.11508 2.29064 5.69349 2.1491 6.59666 2.0753C7.51033 2.00065 8.67496 1.99995 10.3 1.99995H11.6L11.7359 2H14.8124C14.7755 1.83635 14.7209 1.67221 14.6384 1.51038C14.4083 1.05879 14.0412 0.691635 13.5896 0.461539C13.2811 0.304373 12.9643 0.248363 12.6585 0.22338C12.3713 0.199919 12.0249 0.199935 11.6334 0.199952H11.6333L11.6 0.199954H10.3L10.2598 0.199954C8.68365 0.199948 7.44561 0.199944 6.45008 0.281282C5.4356 0.364169 4.59394 0.535984 3.83092 0.924761C2.57964 1.56232 1.56232 2.57964 0.924762 3.83092C0.535985 4.59393 0.36417 5.4356 0.281283 6.45008C0.199945 7.44561 0.199949 8.68365 0.199955 10.2598L0.199955 10.3V11.6L0.199952 11.6333V11.6333V11.6334C0.199935 12.0248 0.199921 12.3713 0.22338 12.6584C0.248364 12.9642 0.304374 13.2811 0.46154 13.5895C0.691636 14.0411 1.05879 14.4083 1.51038 14.6384C1.6722 14.7208 1.83633 14.7754 1.99997 14.8123V11.6795L1.99996 11.6V10.3ZM8.07996 3.99998L8.04516 3.99998H8.04515C7.5242 3.99996 7.0806 3.99995 6.71621 4.02923C6.33348 4.05999 5.96091 4.12732 5.60372 4.3058C5.04195 4.5865 4.58648 5.04197 4.30578 5.60374C4.1273 5.96093 4.05997 6.3335 4.02921 6.71623C3.99993 7.08063 3.99994 7.52422 3.99996 8.04517V8.04518L3.99996 8.07998V15.92L3.99996 15.9548V15.9548C3.99994 16.4757 3.99993 16.9193 4.02921 17.2837C4.05997 17.6664 4.1273 18.039 4.30578 18.3962C4.58648 18.958 5.04195 19.4134 5.60372 19.6941C5.96091 19.8726 6.33348 19.9399 6.71621 19.9707C7.08058 20 7.52414 20 8.04505 20H8.04515H8.07996H14.92H14.9548H14.9549C15.4758 20 15.9193 20 16.2837 19.9707C16.6664 19.9399 17.039 19.8726 17.3962 19.6941C17.958 19.4134 18.4134 18.958 18.6941 18.3962C18.8726 18.039 18.9399 17.6664 18.9707 17.2837C19 16.9193 19 16.4757 19 15.9548V15.92V8.07998V8.04518C19 7.52422 19 7.08063 18.9707 6.71623C18.9399 6.3335 18.8726 5.96093 18.6941 5.60374C18.4134 5.04197 17.958 4.5865 17.3962 4.3058C17.039 4.12732 16.6664 4.05999 16.2837 4.02923C15.9193 3.99995 15.4757 3.99996 14.9548 3.99998H14.9548L14.92 3.99998H8.07996ZM6.40828 5.91598C6.47319 5.88354 6.58698 5.84542 6.86039 5.82345C7.14405 5.80066 7.51474 5.79998 8.07996 5.79998H14.92C15.4852 5.79998 15.8559 5.80066 16.1395 5.82345C16.4129 5.84542 16.5267 5.88354 16.5916 5.91598C16.8047 6.02245 16.9775 6.19522 17.084 6.4083C17.1164 6.47321 17.1545 6.587 17.1765 6.86041C17.1993 7.14407 17.2 7.51476 17.2 8.07998V15.92C17.2 16.4852 17.1993 16.8559 17.1765 17.1395C17.1545 17.4129 17.1164 17.5267 17.084 17.5916C16.9775 17.8047 16.8047 17.9775 16.5916 18.084C16.5267 18.1164 16.4129 18.1545 16.1395 18.1765C15.8559 18.1993 15.4852 18.2 14.92 18.2H8.07996C7.51474 18.2 7.14405 18.1993 6.86039 18.1765C6.58698 18.1545 6.47319 18.1164 6.40828 18.084C6.1952 17.9775 6.02243 17.8047 5.91596 17.5916C5.88352 17.5267 5.8454 17.4129 5.82343 17.1395C5.80063 16.8559 5.79996 16.4852 5.79996 15.92V8.07998C5.79996 7.51476 5.80063 7.14407 5.82343 6.86041C5.8454 6.587 5.88352 6.47321 5.91596 6.4083C6.02243 6.19522 6.1952 6.02245 6.40828 5.91598Z" fill="white"/>
</svg>
