<svg width="270" height="210" viewBox="0 0 270 210" fill="none" xmlns="http://www.w3.org/2000/svg">
<g clip-path="url(#clip0_1_955)">
<g clip-path="url(#clip1_1_955)">
<path d="M43.2807 162.605L51.5616 166.61C53.3584 167.479 54.5 169.299 54.5 171.295V171.295C54.5 174.17 52.1698 176.5 49.2954 176.5H20.7042C17.8299 176.5 15.4997 174.17 15.4993 171.296V171.296C15.4991 169.299 16.6406 167.479 18.4376 166.61L26.7162 162.605" stroke="#4E617D" stroke-linecap="round"/>
<path d="M19.5 192.5H22.5V176.5H19.5V192.5ZM19.5 192.5H14H56" stroke="#4E617D" stroke-linecap="round"/>
<path d="M29.5 176.5H26.5V192.5H29.5V176.5Z" stroke="#4E617D" stroke-linecap="round"/>
<path d="M43.5 176.5H40.5V192.5H43.5V176.5Z" stroke="#4E617D" stroke-linecap="round"/>
<path d="M50.5 176.5H47.5V192.5H50.5V176.5Z" stroke="#4E617D" stroke-linecap="round"/>
<circle cx="35" cy="161.5" r="8" stroke="#4E617D"/>
<path d="M35.8424 157.767C35.8424 157.491 35.6185 157.267 35.3424 157.267H34.7185C34.4424 157.267 34.2185 157.491 34.2185 157.767V158.172C34.0645 158.211 33.9161 158.263 33.7738 158.33C33.4152 158.496 33.1199 158.739 32.9032 159.061L32.9031 159.061L32.9011 159.064C32.6807 159.396 32.5785 159.777 32.5785 160.188C32.5785 160.61 32.667 161.005 32.8868 161.333L32.8868 161.333L32.8891 161.336C33.0887 161.629 33.3562 161.864 33.6773 162.046H32.8666C32.5904 162.046 32.3666 162.269 32.3666 162.546C32.3666 162.958 32.4355 163.34 32.598 163.672C32.7502 163.983 32.9606 164.245 33.2322 164.446L33.2321 164.446L33.2381 164.451C33.492 164.633 33.7723 164.765 34.076 164.845L34.0773 164.846C34.0982 164.851 34.1191 164.857 34.1401 164.862V165.233C34.1401 165.509 34.3639 165.733 34.6401 165.733H35.2639C35.5401 165.733 35.7639 165.509 35.7639 165.233V164.862C35.8951 164.827 36.022 164.783 36.1442 164.73C36.5083 164.569 36.8081 164.329 37.025 164.005L37.0264 164.003C37.2494 163.667 37.3491 163.276 37.3491 162.856C37.3491 162.433 37.2567 162.038 37.0303 161.71C36.8309 161.415 36.5626 161.177 36.2401 160.991C36.2054 160.971 36.1702 160.951 36.1345 160.931H36.8765C37.1527 160.931 37.3765 160.707 37.3765 160.431C37.3765 160.088 37.3225 159.765 37.2034 159.468C37.0865 159.175 36.9153 158.918 36.6875 158.707C36.465 158.499 36.2042 158.343 35.9118 158.238C35.8888 158.23 35.8656 158.222 35.8424 158.214V157.767ZM34.6883 162.523C34.8137 162.579 34.8996 162.628 34.9547 162.667C34.9962 162.696 35.006 162.716 35.008 162.72C35.0113 162.727 35.0268 162.767 35.0268 162.863C35.0268 162.907 35.0191 162.935 35.0101 162.956C34.9993 162.958 34.9812 162.96 34.9539 162.96C34.9064 162.96 34.8638 162.953 34.8244 162.942C34.8059 162.935 34.7879 162.925 34.7692 162.909C34.7598 162.898 34.7418 162.871 34.7227 162.818C34.706 162.771 34.6888 162.685 34.6888 162.546C34.6888 162.538 34.6887 162.531 34.6883 162.523ZM35.0273 160.187C35.0405 160.232 35.0521 160.301 35.054 160.402C35.0209 160.383 34.9936 160.365 34.9715 160.349C34.9353 160.321 34.919 160.301 34.9128 160.292C34.9071 160.275 34.9007 160.245 34.9007 160.195C34.9007 160.145 34.9078 160.11 34.9162 160.085C34.9238 160.084 34.9349 160.083 34.95 160.083C34.9687 160.083 34.976 160.087 34.9788 160.088L34.9874 160.092C34.9886 160.093 34.9904 160.095 34.9927 160.098C34.9936 160.099 35.0089 160.118 35.0243 160.176L35.0241 160.176L35.0273 160.187ZM34.9924 160.094C34.9921 160.094 34.9918 160.094 34.9915 160.093L34.9924 160.094Z" stroke="#4E617D" stroke-linejoin="round"/>
<path d="M0 211L70.7107 140.289" stroke="#F0F4F7" stroke-width="6"/>
<path d="M0 211L70.7107 140.289" stroke="#50505A" stroke-width="2"/>
</g>
<rect x="1" y="141" width="68" height="68" rx="34" stroke="#50505A" stroke-width="2"/>
<g clip-path="url(#clip2_1_955)">
<path d="M113 170.5H157L134.998 162.562L113 170.5Z" stroke="#4E617D" stroke-linecap="round"/>
<path d="M121.5 173.5H118.5V189.5H121.5V173.5Z" stroke="#4E617D" stroke-linecap="round"/>
<path d="M128.5 173.5H125.5V189.5H128.5V173.5Z" stroke="#4E617D" stroke-linecap="round"/>
<path d="M144.5 173.5H141.5V189.5H144.5V173.5Z" stroke="#4E617D" stroke-linecap="round"/>
<path d="M151.5 173.5H148.5V189.5H151.5V173.5Z" stroke="#4E617D" stroke-linecap="round"/>
<path d="M155 173.5H115" stroke="#4E617D" stroke-linecap="round"/>
<path d="M135 153.884V162.634" stroke="#4E617D"/>
<path d="M144.224 158.793C141.151 157.509 138.073 160.077 135 158.793V153.871C138.073 155.155 141.151 152.587 144.224 153.871V158.793Z" stroke="#4E617D"/>
<path d="M129 186.5H141" stroke="#4E617D"/>
<path d="M155.5 192.5H114.5V189.5H155.5V192.5Z" stroke="#4E617D" stroke-linecap="round"/>
<path d="M100 211L170.711 140.289" stroke="#F0F4F7" stroke-width="6"/>
<path d="M100 211L170.711 140.289" stroke="#50505A" stroke-width="2"/>
</g>
<rect x="101" y="141" width="68" height="68" rx="34" stroke="#50505A" stroke-width="2"/>
<g clip-path="url(#clip3_1_955)">
<path d="M232.706 185.492C232.491 184.897 231.927 184.5 231.294 184.5H228.706C228.073 184.5 227.509 184.897 227.294 185.492L226.089 188.841C226.03 189.004 226 189.176 226 189.349V191C226 191.828 226.672 192.5 227.5 192.5H232.5C233.328 192.5 234 191.828 234 191V189.349C234 189.176 233.97 189.004 233.911 188.841L232.706 185.492Z" stroke="#4E617D"/>
<path d="M222.623 185.467C222.401 184.885 221.843 184.5 221.22 184.5H218.28C217.657 184.5 217.099 184.885 216.877 185.467L215.598 188.834L215.13 188.657L215.598 188.834C215.533 189.005 215.5 189.185 215.5 189.367V191C215.5 191.828 216.172 192.5 217 192.5H222.5C223.328 192.5 224 191.828 224 191V189.367C224 189.185 223.967 189.005 223.902 188.834L222.623 185.467Z" stroke="#4E617D"/>
<path d="M253.123 185.467C252.901 184.885 252.343 184.5 251.72 184.5H248.78C248.157 184.5 247.599 184.885 247.377 185.467L246.098 188.834L245.63 188.657L246.098 188.834C246.033 189.005 246 189.185 246 189.367V191C246 191.828 246.672 192.5 247.5 192.5H253C253.828 192.5 254.5 191.828 254.5 191V189.367C254.5 189.185 254.467 189.005 254.402 188.834L253.123 185.467Z" stroke="#4E617D"/>
<path d="M242.706 185.492C242.491 184.897 241.927 184.5 241.294 184.5H238.706C238.073 184.5 237.509 184.897 237.294 185.492L236.089 188.841C236.03 189.004 236 189.176 236 189.349V191C236 191.828 236.672 192.5 237.5 192.5H242.5C243.328 192.5 244 191.828 244 191V189.349C244 189.176 243.97 189.004 243.911 188.841L242.706 185.492Z" stroke="#4E617D"/>
<path d="M237.706 175.492C237.491 174.897 236.927 174.5 236.294 174.5H233.706C233.073 174.5 232.509 174.897 232.294 175.492L231.089 178.841C231.03 179.004 231 179.176 231 179.349V181C231 181.828 231.672 182.5 232.5 182.5H237.5C238.328 182.5 239 181.828 239 181V179.349C239 179.176 238.97 179.004 238.911 178.841L237.706 175.492Z" stroke="#4E617D"/>
<path d="M227.623 175.467C227.401 174.885 226.843 174.5 226.22 174.5H223.28C222.657 174.5 222.099 174.885 221.877 175.467L220.598 178.834L220.13 178.657L220.598 178.834C220.533 179.005 220.5 179.185 220.5 179.367V181C220.5 181.828 221.172 182.5 222 182.5H227.5C228.328 182.5 229 181.828 229 181V179.367C229 179.185 228.967 179.005 228.902 178.834L227.623 175.467Z" stroke="#4E617D"/>
<path d="M248.123 175.467C247.901 174.885 247.343 174.5 246.72 174.5H243.78C243.157 174.5 242.599 174.885 242.377 175.467L241.098 178.834L240.63 178.657L241.098 178.834C241.033 179.005 241 179.185 241 179.367V181C241 181.828 241.672 182.5 242.5 182.5H248C248.828 182.5 249.5 181.828 249.5 181V179.367C249.5 179.185 249.467 179.005 249.402 178.834L248.123 175.467Z" stroke="#4E617D"/>
<path d="M232.623 165.467C232.401 164.885 231.843 164.5 231.22 164.5H228.28C227.657 164.5 227.099 164.885 226.877 165.467L225.598 168.834L225.13 168.657L225.598 168.834C225.533 169.005 225.5 169.185 225.5 169.367V171C225.5 171.828 226.172 172.5 227 172.5H232.5C233.328 172.5 234 171.828 234 171V169.367C234 169.185 233.967 169.005 233.902 168.834L232.623 165.467Z" stroke="#4E617D"/>
<path d="M243.123 165.467C242.901 164.885 242.343 164.5 241.72 164.5H238.78C238.157 164.5 237.599 164.885 237.377 165.467L236.098 168.834L235.63 168.657L236.098 168.834C236.033 169.005 236 169.185 236 169.367V171C236 171.828 236.672 172.5 237.5 172.5H243C243.828 172.5 244.5 171.828 244.5 171V169.367C244.5 169.185 244.467 169.005 244.402 168.834L243.123 165.467Z" stroke="#4E617D"/>
<path d="M237.706 155.492C237.491 154.897 236.927 154.5 236.294 154.5H233.706C233.073 154.5 232.509 154.897 232.294 155.492L231.089 158.841C231.03 159.004 231 159.176 231 159.349V161C231 161.828 231.672 162.5 232.5 162.5H237.5C238.328 162.5 239 161.828 239 161V159.349C239 159.176 238.97 159.004 238.911 158.841L237.706 155.492Z" stroke="#4E617D"/>
<path d="M200 211L270.711 140.289" stroke="#F0F4F7" stroke-width="6"/>
<path d="M200 211L270.711 140.289" stroke="#50505A" stroke-width="2"/>
</g>
<rect x="201" y="141" width="68" height="68" rx="34" stroke="#50505A" stroke-width="2"/>
<path d="M174 64C174 71.7135 171.713 79.2537 167.427 85.6672C163.142 92.0808 157.051 97.0795 149.925 100.031C142.798 102.983 134.957 103.755 127.391 102.251C119.826 100.746 112.877 97.0314 107.423 91.5772C101.969 86.1229 98.2542 79.1738 96.7494 71.6085C95.2446 64.0433 96.0169 56.2017 98.9687 49.0753C101.921 41.949 106.919 35.8581 113.333 31.5727C119.746 27.2873 127.287 25 135 25C145.343 25 155.263 29.1089 162.577 36.4228C169.891 43.7368 174 53.6566 174 64Z" stroke="#D0C018" stroke-width="2" stroke-linejoin="round"/>
<path d="M167.196 64.0003V64.0009C167.196 70.371 165.307 76.5979 161.768 81.8943C158.229 87.1907 153.199 91.3186 147.313 93.7558C141.428 96.1931 134.952 96.8304 128.704 95.587C122.457 94.3436 116.718 91.2754 112.215 86.7704C107.711 82.2655 104.644 76.5261 103.403 70.2783C102.161 64.0304 102.8 57.5546 105.239 51.67C107.678 45.7854 111.808 40.7562 117.105 37.2185C122.402 33.6808 128.63 31.7935 135 31.7953L135.001 31.7953C139.23 31.7941 143.418 32.6264 147.325 34.2445C151.232 35.8627 154.782 38.235 157.772 41.2258C160.762 44.2167 163.134 47.7675 164.751 51.6753C166.368 55.5831 167.199 59.7712 167.196 64.0003Z" stroke="#D0C018" stroke-width="2" stroke-linejoin="round"/>
<path d="M139.485 50.951C139.095 50.8538 138.701 51.0003 138.464 51.2942C138.442 51.1797 138.4 51.0689 138.339 50.9671C138.202 50.7398 137.981 50.576 137.724 50.5118L135.519 49.962C134.983 49.8284 134.44 50.1544 134.306 50.6901L133.64 53.3596C133.543 53.3365 133.447 53.3133 133.351 53.2899C133.305 53.271 133.258 53.2552 133.208 53.2428L130.166 52.4831C129.908 52.4188 129.636 52.4595 129.409 52.5961C129.181 52.7328 129.017 52.9542 128.953 53.2117L128.366 55.5681C128.301 55.8286 128.344 56.1043 128.484 56.333C128.625 56.5618 128.852 56.7245 129.113 56.7845L129.337 55.8098L129.113 56.7845L129.113 56.7845L129.113 56.7845L129.114 56.7847L129.118 56.7855L129.131 56.7886L129.182 56.8004L129.366 56.8428C129.517 56.8781 129.719 56.9252 129.918 56.9729C130.12 57.0209 130.314 57.0682 130.453 57.1042C130.496 57.1154 130.529 57.1244 130.554 57.1311C130.6 57.1503 130.648 57.1661 130.697 57.1784C130.827 57.2108 130.894 57.2475 130.923 57.2674C130.938 57.2774 130.946 57.2846 130.949 57.2879C130.952 57.2912 130.954 57.2929 130.954 57.2934L130.954 57.2934C130.954 57.2937 130.959 57.3011 130.963 57.323C130.966 57.3337 130.967 57.3469 130.969 57.3625L129.967 61.3785C129.966 61.3842 129.965 61.3899 129.963 61.3956L128.578 66.9479C128.552 66.9419 128.517 66.9337 128.473 66.9232C128.332 66.8891 128.137 66.8397 127.936 66.7879C127.737 66.7364 127.536 66.6839 127.385 66.6441L127.202 66.5959L127.151 66.5824L127.138 66.5788L127.135 66.5779L127.134 66.5777L127.134 66.5777L127.134 66.5777C126.655 66.4505 126.156 66.6922 125.959 67.1462L124.864 69.6716C124.747 69.9413 124.754 70.2487 124.885 70.5123C125.015 70.7758 125.254 70.9687 125.539 71.0398L128.409 71.7552C128.409 71.7553 128.41 71.7553 128.41 71.7554C128.616 71.807 128.816 71.8585 129.015 71.9103L128.342 74.6155C128.208 75.1512 128.534 75.6937 129.07 75.8274L131.274 76.3772C131.531 76.4414 131.803 76.4008 132.031 76.2642C132.133 76.2029 132.222 76.1247 132.295 76.0338C132.317 76.1484 132.359 76.2593 132.42 76.3612C132.557 76.5886 132.778 76.7524 133.035 76.8165L135.242 77.3664C135.777 77.4999 136.32 77.1739 136.454 76.6381L137.142 73.8781C138.722 74.1134 140.232 74.1511 141.546 73.7468C143.206 73.2358 144.433 72.059 145.122 70.0894C145.657 68.5611 145.693 67.2072 145.183 66.0418C144.936 65.4779 144.579 64.9997 144.15 64.5911C144.352 64.4419 144.544 64.2724 144.723 64.0805C145.375 63.3812 145.789 62.4547 145.957 61.3163C146.206 59.6518 145.68 58.3117 144.662 57.2846C143.887 56.5043 142.852 55.9258 141.732 55.4714L142.42 52.7131C142.484 52.4557 142.443 52.1834 142.306 51.9561C142.17 51.7288 141.948 51.565 141.691 51.5009L139.485 50.951ZM130.598 57.1438C130.598 57.1437 130.596 57.1434 130.594 57.1427C130.597 57.1435 130.598 57.1438 130.598 57.1438ZM127.533 67.6234C127.551 67.5687 127.574 67.5182 127.599 67.4718C127.572 67.5209 127.551 67.5716 127.533 67.6234ZM138.957 67.9958L138.957 67.9963C138.868 68.3522 138.683 68.5396 138.389 68.6679C138.043 68.8188 137.535 68.8831 136.889 68.8495C136.015 68.8039 135.102 68.598 134.347 68.4059L135.081 65.4632C135.845 65.6389 136.75 65.868 137.553 66.2322C138.137 66.4976 138.549 66.787 138.779 67.0805C138.972 67.3273 139.057 67.5954 138.957 67.9958ZM139.639 60.8874C139.558 61.2146 139.402 61.3668 139.194 61.4683C138.937 61.5931 138.547 61.6581 138.027 61.639C137.375 61.6151 136.7 61.4731 136.113 61.3266L136.734 58.8335C137.328 58.9717 137.993 59.1495 138.589 59.4308C139.055 59.651 139.362 59.886 139.525 60.1138C139.657 60.2976 139.731 60.5193 139.639 60.8874Z" stroke="#D0C018" stroke-width="2" stroke-linejoin="round"/>
<path d="M231.667 104C231.667 106.946 234.054 109.333 237 109.333C239.946 109.333 242.333 106.946 242.333 104C242.333 101.054 239.946 98.6667 237 98.6667C234.054 98.6667 231.667 101.054 231.667 104ZM208.256 84.1768L208.824 83.3536L208.256 84.1768ZM169 85H207.689V83H169V85ZM207.689 85L236.432 104.823L237.568 103.177L208.824 83.3536L207.689 85ZM207.689 85L208.824 83.3536C208.49 83.1233 208.094 83 207.689 83V85Z" fill="#D0C018"/>
<path d="M231.667 24C231.667 26.9455 234.054 29.3333 237 29.3333C239.946 29.3333 242.333 26.9455 242.333 24C242.333 21.0545 239.946 18.6667 237 18.6667C234.054 18.6667 231.667 21.0545 231.667 24ZM208.256 43.8232L208.824 44.6464L208.256 43.8232ZM169 45H207.689V43H169V45ZM208.824 44.6464L237.568 24.8232L236.432 23.1768L207.689 43L208.824 44.6464ZM207.689 45C208.094 45 208.49 44.8767 208.824 44.6464L207.689 43V45Z" fill="#D0C018"/>
<path d="M207.667 64C207.667 66.9455 210.054 69.3333 213 69.3333C215.946 69.3333 218.333 66.9455 218.333 64C218.333 61.0545 215.946 58.6667 213 58.6667C210.054 58.6667 207.667 61.0545 207.667 64ZM174 65H213V63H174V65Z" fill="#D0C018"/>
<path d="M99.6667 6C99.6667 8.94552 102.054 11.3333 105 11.3333C107.946 11.3333 110.333 8.94552 110.333 6C110.333 3.05448 107.946 0.666667 105 0.666667C102.054 0.666667 99.6667 3.05448 99.6667 6ZM124.41 14.7347L124 15.6466L124.41 14.7347ZM126 26V15.6466H124V26H126ZM124.821 13.8227L105.41 5.08808L104.59 6.91192L124 15.6466L124.821 13.8227ZM126 15.6466C126 14.8596 125.538 14.1457 124.821 13.8227L124 15.6466H126Z" fill="#D0C018"/>
<path d="M159.667 6C159.667 8.94552 162.054 11.3333 165 11.3333C167.946 11.3333 170.333 8.94552 170.333 6C170.333 3.05448 167.946 0.666667 165 0.666667C162.054 0.666667 159.667 3.05448 159.667 6ZM145.59 14.7347L146 15.6466L145.59 14.7347ZM146 27V15.6466H144V27H146ZM146 15.6466L165.41 6.91192L164.59 5.08808L145.179 13.8227L146 15.6466ZM146 15.6466H146L145.179 13.8227C144.462 14.1457 144 14.8596 144 15.6466H146Z" fill="#D0C018"/>
<path d="M62.3333 64C62.3333 66.9455 59.9455 69.3333 57 69.3333C54.0545 69.3333 51.6667 66.9455 51.6667 64C51.6667 61.0545 54.0545 58.6667 57 58.6667C59.9455 58.6667 62.3333 61.0545 62.3333 64ZM96 65H57V63H96V65Z" fill="#D0C018"/>
<path d="M38.3333 104C38.3333 106.946 35.9455 109.333 33 109.333C30.0545 109.333 27.6667 106.946 27.6667 104C27.6667 101.054 30.0545 98.6667 33 98.6667C35.9455 98.6667 38.3333 101.054 38.3333 104ZM61.7437 84.1768L61.1759 83.3536L61.7437 84.1768ZM101 85H62.3114V83H101V85ZM62.3114 85L33.5677 104.823L32.4323 103.177L61.1759 83.3536L62.3114 85ZM62.3114 85L61.1759 83.3536C61.5098 83.1233 61.9058 83 62.3114 83V85Z" fill="#D0C018"/>
<path d="M38.3333 24C38.3333 26.9455 35.9455 29.3333 33 29.3333C30.0545 29.3333 27.6667 26.9455 27.6667 24C27.6667 21.0545 30.0545 18.6667 33 18.6667C35.9455 18.6667 38.3333 21.0545 38.3333 24ZM61.7437 43.8232L61.1759 44.6464L61.7437 43.8232ZM101 45H62.3114V43H101V45ZM61.1759 44.6464L32.4323 24.8232L33.5677 23.1768L62.3114 43L61.1759 44.6464ZM62.3114 45C61.9058 45 61.5098 44.8767 61.1759 44.6464L62.3114 43V45Z" fill="#D0C018"/>
</g>
<defs>
<clipPath id="clip0_1_955">
<rect width="270" height="210" fill="white"/>
</clipPath>
<clipPath id="clip1_1_955">
<rect y="140" width="70" height="70" rx="35" fill="white"/>
</clipPath>
<clipPath id="clip2_1_955">
<rect x="100" y="140" width="70" height="70" rx="35" fill="white"/>
</clipPath>
<clipPath id="clip3_1_955">
<rect x="200" y="140" width="70" height="70" rx="35" fill="white"/>
</clipPath>
</defs>
</svg>
